<svg width="1200" height="750" viewBox="0 0 1200 750" fill="none" xmlns="http://www.w3.org/2000/svg" role="img" aria-labelledby="title desc">
  <title id="title">Adventure travel website preview</title>
  <desc id="desc">Travel website mockup with destination hero, booking filters, and package cards.</desc>
  <rect width="1200" height="750" rx="36" fill="#05070D"/>
  <rect x="72" y="68" width="1056" height="614" rx="34" fill="#0B1020" stroke="#27324B"/>
  <path d="M72 424L270 270L410 356L560 212L724 380L886 250L1128 438V682H72V424Z" fill="url(#mountains)"/>
  <rect x="116" y="116" width="970" height="98" rx="28" fill="#05070D" fill-opacity="0.72" stroke="#FFFFFF" stroke-opacity="0.12"/>
  <text x="154" y="174" fill="#FFFFFF" font-family="Inter, Arial" font-size="36" font-weight="800">Adventure Booking</text>
  <rect x="720" y="142" width="112" height="34" rx="17" fill="#FFFFFF" fill-opacity="0.12"/>
  <rect x="850" y="142" width="146" height="34" rx="17" fill="#FFFFFF"/>
  <text x="887" y="164" fill="#05070D" font-family="Inter, Arial" font-size="13" font-weight="800">Book Now</text>
  <rect x="154" y="508" width="240" height="94" rx="22" fill="#FFFFFF" fill-opacity="0.12" stroke="#FFFFFF" stroke-opacity="0.16"/>
  <rect x="432" y="508" width="240" height="94" rx="22" fill="#FFFFFF" fill-opacity="0.12" stroke="#FFFFFF" stroke-opacity="0.16"/>
  <rect x="710" y="508" width="240" height="94" rx="22" fill="#FFFFFF" fill-opacity="0.12" stroke="#FFFFFF" stroke-opacity="0.16"/>
  <text x="184" y="560" fill="#EDF5FF" font-family="Inter, Arial" font-size="20" font-weight="800">Treks</text>
  <text x="462" y="560" fill="#EDF5FF" font-family="Inter, Arial" font-size="20" font-weight="800">Tours</text>
  <text x="740" y="560" fill="#EDF5FF" font-family="Inter, Arial" font-size="20" font-weight="800">Packages</text>
  <defs>
    <linearGradient id="mountains" x1="140" y1="220" x2="1050" y2="660" gradientUnits="userSpaceOnUse"><stop stop-color="#35A7FF"/><stop offset="0.5" stop-color="#43E8B5"/><stop offset="1" stop-color="#9A7CFF"/></linearGradient>
  </defs>
</svg>
