<svg width="1200" height="750" viewBox="0 0 1200 750" fill="none" xmlns="http://www.w3.org/2000/svg" role="img" aria-labelledby="title desc">
  <title id="title">RITZY ecommerce interface preview</title>
  <desc id="desc">Dark premium ecommerce storefront mockup with product cards and checkout panel.</desc>
  <rect width="1200" height="750" rx="36" fill="#05070D"/>
  <path d="M0 0H1200V750H0V0Z" fill="url(#bg)"/>
  <rect x="76" y="72" width="1048" height="606" rx="30" fill="#0B1020" stroke="#24314D"/>
  <rect x="112" y="116" width="260" height="38" rx="19" fill="#FFFFFF" fill-opacity="0.09"/>
  <text x="132" y="141" fill="#EDF5FF" font-family="Inter, Arial" font-size="18" font-weight="700">RITZY</text>
  <rect x="794" y="116" width="96" height="34" rx="17" fill="#35A7FF" fill-opacity="0.22"/>
  <text x="821" y="138" fill="#BFE5FF" font-family="Inter, Arial" font-size="13" font-weight="700">Cart</text>
  <rect x="914" y="116" width="148" height="34" rx="17" fill="#FFFFFF"/>
  <text x="951" y="138" fill="#05070D" font-family="Inter, Arial" font-size="13" font-weight="700">Checkout</text>
  <text x="112" y="236" fill="#FFFFFF" font-family="Inter, Arial" font-size="54" font-weight="800">Men's Fashion</text>
  <text x="112" y="282" fill="#94A3B8" font-family="Inter, Arial" font-size="20">Premium product discovery with cart and checkout.</text>
  <rect x="112" y="330" width="216" height="54" rx="18" fill="url(#button)"/>
  <text x="158" y="364" fill="#FFFFFF" font-family="Inter, Arial" font-size="16" font-weight="700">Shop New In</text>
  <g>
    <rect x="456" y="210" width="184" height="252" rx="26" fill="#11182B" stroke="#263657"/>
    <rect x="482" y="238" width="132" height="112" rx="20" fill="url(#shirt)"/>
    <rect x="482" y="376" width="118" height="16" rx="8" fill="#EDF5FF" fill-opacity="0.9"/>
    <rect x="482" y="406" width="84" height="12" rx="6" fill="#64748B"/>
  </g>
  <g>
    <rect x="670" y="168" width="184" height="294" rx="26" fill="#11182B" stroke="#263657"/>
    <rect x="696" y="198" width="132" height="142" rx="20" fill="url(#jacket)"/>
    <rect x="696" y="376" width="120" height="16" rx="8" fill="#EDF5FF" fill-opacity="0.9"/>
    <rect x="696" y="406" width="92" height="12" rx="6" fill="#64748B"/>
  </g>
  <rect x="884" y="210" width="178" height="310" rx="28" fill="#FFFFFF" fill-opacity="0.08" stroke="#263657"/>
  <text x="918" y="260" fill="#FFFFFF" font-family="Inter, Arial" font-size="22" font-weight="800">Order</text>
  <rect x="918" y="300" width="110" height="12" rx="6" fill="#64748B"/>
  <rect x="918" y="330" width="86" height="12" rx="6" fill="#64748B"/>
  <rect x="918" y="392" width="110" height="44" rx="14" fill="#35A7FF"/>
  <text x="947" y="420" fill="#00111F" font-family="Inter, Arial" font-size="13" font-weight="800">Pay</text>
  <defs>
    <linearGradient id="bg" x1="72" y1="36" x2="1076" y2="724" gradientUnits="userSpaceOnUse"><stop stop-color="#102A43"/><stop offset="0.48" stop-color="#0B1020"/><stop offset="1" stop-color="#221342"/></linearGradient>
    <linearGradient id="button" x1="112" y1="330" x2="328" y2="384" gradientUnits="userSpaceOnUse"><stop stop-color="#35A7FF"/><stop offset="1" stop-color="#9A7CFF"/></linearGradient>
    <linearGradient id="shirt" x1="482" y1="238" x2="616" y2="350" gradientUnits="userSpaceOnUse"><stop stop-color="#35A7FF"/><stop offset="1" stop-color="#43E8B5"/></linearGradient>
    <linearGradient id="jacket" x1="696" y1="198" x2="828" y2="340" gradientUnits="userSpaceOnUse"><stop stop-color="#9A7CFF"/><stop offset="1" stop-color="#35A7FF"/></linearGradient>
  </defs>
</svg>
