<svg width="1200" height="750" viewBox="0 0 1200 750" fill="none" xmlns="http://www.w3.org/2000/svg" role="img" aria-labelledby="title desc">
  <title id="title">AngoServices interface preview</title>
  <desc id="desc">Services commerce app mockup with search, products, login, and map panel.</desc>
  <rect width="1200" height="750" rx="36" fill="#05070D"/>
  <rect x="74" y="70" width="1052" height="610" rx="34" fill="#0B1020" stroke="#27324B"/>
  <rect x="112" y="116" width="318" height="50" rx="18" fill="#FFFFFF" fill-opacity="0.08"/>
  <text x="140" y="148" fill="#EDF5FF" font-family="Inter, Arial" font-size="18" font-weight="700">Search products and services</text>
  <rect x="866" y="116" width="92" height="38" rx="19" fill="#9A7CFF" fill-opacity="0.28"/>
  <text x="894" y="140" fill="#E8E0FF" font-family="Inter, Arial" font-size="13" font-weight="700">Login</text>
  <rect x="972" y="116" width="90" height="38" rx="19" fill="#FFFFFF"/>
  <text x="999" y="140" fill="#05070D" font-family="Inter, Arial" font-size="13" font-weight="700">Map</text>
  <text x="112" y="240" fill="#FFFFFF" font-family="Inter, Arial" font-size="48" font-weight="800">AngoServices</text>
  <text x="112" y="278" fill="#9BA8BD" font-family="Inter, Arial" font-size="18">Location-aware shopping for dresses, shoes, and sunglasses.</text>
  <g>
    <rect x="112" y="336" width="184" height="180" rx="24" fill="#FFFFFF" fill-opacity="0.07" stroke="#263657"/>
    <rect x="138" y="364" width="132" height="72" rx="18" fill="#35A7FF" fill-opacity="0.35"/>
    <rect x="138" y="462" width="100" height="12" rx="6" fill="#EDF5FF"/>
    <rect x="138" y="488" width="70" height="10" rx="5" fill="#64748B"/>
  </g>
  <g>
    <rect x="326" y="318" width="184" height="198" rx="24" fill="#FFFFFF" fill-opacity="0.07" stroke="#263657"/>
    <rect x="352" y="346" width="132" height="90" rx="18" fill="#9A7CFF" fill-opacity="0.38"/>
    <rect x="352" y="462" width="112" height="12" rx="6" fill="#EDF5FF"/>
    <rect x="352" y="488" width="76" height="10" rx="5" fill="#64748B"/>
  </g>
  <rect x="588" y="214" width="474" height="338" rx="30" fill="#06131F" stroke="#284769"/>
  <path d="M620 494L716 386L820 432L936 298L1030 378" stroke="#35A7FF" stroke-width="8" stroke-linecap="round" stroke-linejoin="round"/>
  <circle cx="820" cy="432" r="16" fill="#43E8B5"/>
  <circle cx="936" cy="298" r="16" fill="#9A7CFF"/>
  <path d="M670 250H1000" stroke="#FFFFFF" stroke-opacity="0.08" stroke-width="22" stroke-linecap="round"/>
  <path d="M670 292H914" stroke="#FFFFFF" stroke-opacity="0.08" stroke-width="16" stroke-linecap="round"/>
</svg>
