<svg width="1200" height="750" viewBox="0 0 1200 750" fill="none" xmlns="http://www.w3.org/2000/svg" role="img" aria-labelledby="title desc">
  <title id="title">Smart food waste reduction system preview</title>
  <desc id="desc">Inventory dashboard mockup with food tracking and waste prevention metrics.</desc>
  <rect width="1200" height="750" rx="36" fill="#05070D"/>
  <rect x="76" y="68" width="1048" height="614" rx="34" fill="#0B1020" stroke="#27324B"/>
  <text x="122" y="134" fill="#FFFFFF" font-family="Inter, Arial" font-size="34" font-weight="800">Food Waste Reduction</text>
  <text x="122" y="172" fill="#94A3B8" font-family="Inter, Arial" font-size="18">Laravel and MySQL inventory tracking.</text>
  <rect x="122" y="226" width="260" height="150" rx="26" fill="#43E8B5" fill-opacity="0.16" stroke="#43E8B5" stroke-opacity="0.35"/>
  <text x="154" y="282" fill="#BDFDEB" font-family="Inter, Arial" font-size="16">Saved Inventory</text>
  <text x="154" y="332" fill="#FFFFFF" font-family="Inter, Arial" font-size="46" font-weight="800">68%</text>
  <rect x="420" y="226" width="260" height="150" rx="26" fill="#35A7FF" fill-opacity="0.14" stroke="#35A7FF" stroke-opacity="0.34"/>
  <text x="452" y="282" fill="#BFE5FF" font-family="Inter, Arial" font-size="16">Active Items</text>
  <text x="452" y="332" fill="#FFFFFF" font-family="Inter, Arial" font-size="46" font-weight="800">124</text>
  <rect x="718" y="226" width="260" height="150" rx="26" fill="#9A7CFF" fill-opacity="0.14" stroke="#9A7CFF" stroke-opacity="0.34"/>
  <text x="750" y="282" fill="#E8E0FF" font-family="Inter, Arial" font-size="16">Expiring Soon</text>
  <text x="750" y="332" fill="#FFFFFF" font-family="Inter, Arial" font-size="46" font-weight="800">18</text>
  <rect x="122" y="424" width="856" height="142" rx="28" fill="#FFFFFF" fill-opacity="0.07" stroke="#263657"/>
  <rect x="158" y="466" width="760" height="18" rx="9" fill="#FFFFFF" fill-opacity="0.1"/>
  <rect x="158" y="512" width="640" height="18" rx="9" fill="#FFFFFF" fill-opacity="0.1"/>
  <rect x="158" y="466" width="420" height="18" rx="9" fill="#43E8B5"/>
  <rect x="158" y="512" width="530" height="18" rx="9" fill="#35A7FF"/>
</svg>
